arm26_states
nRows=16
nColumns=17

# SIMM Motion File Header:
name arm26_states
datacolumns 17
datarows 16
otherdata 1
range 0.20185086999999993000 0.22806526999999982000
endheader
time	r_shoulder_elev	r_elbow_flex	r_shoulder_elev_u	r_elbow_flex_u	TRIlong.activation	TRIlong.fiber_length	TRIlat.activation	TRIlat.fiber_length	TRImed.activation	TRImed.fiber_length	BIClong.activation	BIClong.fiber_length	BICshort.activation	BICshort.fiber_length	BRA.activation	BRA.fiber_length
      0.20185086999999993000	     -7.01814516800526090000	     31.94495675420127500000	    -50.43189297704346100000	    259.40978577557917000000	      0.01001505892242508600	      0.14453956526776907000	      0.01493769142597972100	      0.08294837224720780200	      0.01431039997312253000	      0.07797138026020634900	      0.12277140471637478000	      0.14056956342036389000	      0.02686110243296463800	      0.13891897781255294000	      0.01023314237629001500	      0.08580838987039574000
      0.20316158999999992000	     -7.08403791437414030000	     32.28466754829482000000	    -50.11447602883556800000	    258.95270197618379000000	      0.01001502537060990800	      0.14463572254581492000	      0.01504258454369892700	      0.08309588265939194000	      0.01440054229052486700	      0.07812121185585423100	      0.12299168931421099000	      0.14043920357555442000	      0.02684082186853032800	      0.13877808926615773000	      0.01023105908822979200	      0.08573270034820901200
      0.20447230999999991000	     -7.14951612548525260000	     32.62377962672749000000	    -49.79724768706398000000	    258.48993866184105000000	      0.01001499112043070300	      0.14473167879289850000	      0.01514950699040635100	      0.08323985385598591000	      0.01449325326547705500	      0.07826744749608317800	      0.12322980644056750000	      0.14030770964542430000	      0.02682239210906594100	      0.13863631512188071000	      0.01022884371393108400	      0.08565780816757225000
      0.20578302999999989000	     -7.21457853906540070000	     32.96228106159141900000	    -49.47840321298373600000	    258.01612546631333000000	      0.01001495619440059100	      0.14482756517279791000	      0.01525820947229749600	      0.08337941668968842900	      0.01458821735012225800	      0.07841079761201941200	      0.12348356545070191000	      0.14017512004227528000	      0.02680575349027298700	      0.13849368998300240000	      0.01022650051145073200	      0.08558326339527745600
      0.20709374999999988000	     -7.27921961840485120000	     33.30014721712805700000	    -49.15430155658656700000	    257.52045276849157000000	      0.01001492061430694700	      0.14492336692741140000	      0.01536847332017399600	      0.08351465685753164900	      0.01468515776021771400	      0.07854803882050924400	      0.12375104481058052000	      0.14004146994990971000	      0.02679084827124769000	      0.13835024047570110000	      0.01022403360157883200	      0.08550837587185944300
      0.20971518999999988000	     -7.40719626862685130000	     33.97381750798751900000	    -48.47754393849811500000	    256.42527945166120000000	      0.01001484759175874500	      0.14511483728330205000	      0.01559259596132076900	      0.08378408613640919700	      0.01488675671591330000	      0.07881713940369142200	      0.12432156371488083000	      0.13977112388983612000	      0.02676751064189915300	      0.13806097174322624000	      0.01021848388621201700	      0.08535897820480366200
      0.21233662999999989000	     -7.53334773303995140000	     34.64443141474681200000	    -47.76191769848554700000	    255.18981129536991000000	      0.01001477230033719400	      0.14530409038309944000	      0.01581893931060759900	      0.08405034167315481000	      0.01510962713226565200	      0.07908645777067085900	      0.12493473204356045000	      0.13949692461988306000	      0.02675959894239582700	      0.13776863558183497000	      0.01021082431966024800	      0.08521050284978022600
      0.21495806999999989000	     -7.65757443351269900000	     35.31163000438517900000	    -47.01351913591471300000	    253.82632450805835000000	      0.01001469489633793500	      0.14548889525824377000	      0.01604675963783198900	      0.08431241310431274200	      0.01535069537446389800	      0.07933278215464988100	      0.12558134216578457000	      0.13921912497108505000	      0.02679123958920515800	      0.13747330331967567000	      0.01020098935250969400	      0.08506315073248205100
      0.21757950999999989000	     -7.77981639141395840000	     35.97516234388875500000	    -46.30851708288733400000	    252.57682506941615000000	      0.01001461547520837400	      0.14570465843932379000	      0.01627687734204939100	      0.08454440059790398200	      0.01560496818238693100	      0.07957003451586977500	      0.12625525418918049000	      0.13893799339327187000	      0.02686772854524671300	      0.13717497412854682000	      0.01018942367022751500	      0.08491699753891061900
      0.21889022999999988000	     -7.84022585195512090000	     36.30564030080253000000	    -45.87677020173523300000	    251.71315596672898000000	      0.01001457493081273800	      0.14578036090009150000	      0.01639607477712075300	      0.08468890332499276500	      0.01573370913369069600	      0.07971794444305577200	      0.12660508804722803000	      0.13879620710951138000	      0.02690725176184731800	      0.13702470170198103000	      0.01018396257860045000	      0.08484428209742905800
      0.22020094999999987000	     -7.90007189724413730000	     36.63498153461015500000	    -45.44281782945806500000	    250.82589421877384000000	      0.01001453381637086200	      0.14587417183354220000	      0.01651866899617619700	      0.08482789518935389400	      0.01586260199012014600	      0.07985662615937641500	      0.12696358478616540000	      0.13865364853771719000	      0.02694364848060592400	      0.13687382746409044000	      0.01017900890145076800	      0.08477188070686092500
      0.22282238999999987000	     -8.01812119457055060000	     37.29034322088183000000	    -44.75366806796257900000	    249.56729503553399000000	      0.01001444995026350300	      0.14606263712477202000	      0.01677242959000419300	      0.08508836102916442200	      0.01612077104557772800	      0.08007901981141624100	      0.12770243998853512000	      0.13836637893026260000	      0.02700855185106137300	      0.13657059389658668000	      0.01017055888728657700	      0.08462809527146614200
      0.22413310999999986000	     -8.07647453911971350000	     37.61679716966325100000	    -44.29563085683111700000	    248.58827810288105000000	      0.01001440723359163700	      0.14615592403728705000	      0.01690290927257539300	      0.08522319751686460700	      0.01625001654294131300	      0.08023648505386094000	      0.12808104717092145000	      0.13822165927145291000	      0.02703769056299518100	      0.13641817195061098000	      0.01016703140089669600	      0.08455657534684797600
      0.22544382999999985000	     -8.13423325068122870000	     37.94198034516919200000	    -43.83769148399291300000	    247.60228506279989000000	      0.01001436402279549400	      0.14624948923025557000	      0.01703542279978947600	      0.08535604787169891200	      0.01637937518639363800	      0.08037210626605105500	      0.12846472560079689000	      0.13807625138435667000	      0.02706499845719237100	      0.13626527368363495000	      0.01016394169718580500	      0.08448537238278071300
      0.22675454999999983000	     -8.19139089535756070000	     38.26586408190105700000	    -43.37731604436938000000	    246.60200140125409000000	      0.01001432038975722800	      0.14634273601644587000	      0.01716993269565575100	      0.08548650222166463700	      0.01650904719043321700	      0.08050539299968909000	      0.12885232709626593000	      0.13793020198087208000	      0.02709088476421350400	      0.13611195731055439000	      0.01016120638405353600	      0.08441451327153935700
      0.22806526999999982000	     -8.24794341905749560000	     38.58842703285949200000	    -42.91391240977507200000	    245.58559985609236000000	      0.01001427636675513700	      0.14643571179947687000	      0.01730626251541425600	      0.08561415961799240200	      0.01663906342431433300	      0.08063711607601552200	      0.12924319958256422000	      0.13778355266917036000	      0.02711558383265477400	      0.13595826443553152000	      0.01015879092476915600	      0.08434400767822815300
